<svg version="1.1" xmlns="http://www.w3.org/2000/svg" xmlns:xlink="http://www.w3.org/1999/xlink" width="709" height="517" viewBox="0,0,709,517"><g transform="translate(116.66666,78.33333)"><g data-paper-data="{&quot;isPaintingLayer&quot;:true}" fill-rule="nonzero" stroke="none" stroke-linecap="butt" stroke-linejoin="miter" stroke-miterlimit="10" stroke-dasharray="" stroke-dashoffset="0" style="mix-blend-mode: normal"><path d="M-116.66666,438.66667v-517h709v517z" fill="#8c00ff" stroke-width="0"/><path d="M71.33334,59.16667c-2.5,0 -2.5,-2.5 -2.5,-2.5v-3c0,-13.01087 0.0002,-26.02174 -0.00099,-39.03261c-0.00033,-3.60953 -0.7742,-7.68151 -0.63082,-11.45816c-0.90951,2.12485 -1.58821,4.30564 -2.53405,6.67522c-1.76973,4.43359 -4.61006,8.88087 -5.92004,13.46526c-0.83523,2.92297 -0.26356,6.11961 -1.02886,9.06166c-0.05833,0.22422 -3.79605,9.15468 -3.96602,9.56171c-0.08745,0.20942 -3.81228,9.15145 -3.91291,9.3017c-0.01476,0.02204 -0.02958,0.04404 -0.04444,0.06599l0.01027,0.00514l-2.21185,4.4237c-0.40086,0.84562 -1.26228,1.43041 -2.26029,1.43041c-1.37832,0 -2.49612,-1.11541 -2.49999,-2.49282l-0.01064,-3.23168c-0.2662,-6.72357 -2.16875,-12.90125 -2.97721,-19.52915c-0.13305,-1.09073 0.11346,-7.79121 0.18408,-8.11694c0.35028,-1.61569 1.52843,-2.9803 1.84887,-4.60217c0.61556,-3.11555 -0.04511,-6.35146 -0.04511,-9.52724c0.01816,-1.49367 0.35922,-3.01865 0.05446,-4.48102c-0.41116,-1.97293 -1.41484,-3.82795 -1.83371,-5.78581c-0.01687,0.05846 -0.04021,0.1081 -0.07133,0.14551c-0.96614,1.16148 -2.388,1.85135 -3.58946,2.7673c-4.10272,3.12779 -5.45876,5.67902 -7.59948,10.32208c-3.8773,8.4096 -6.87265,16.89385 -9.09098,25.91991c-1.52155,6.19094 -2.39725,12.52638 -3.94414,18.71838c0,0 -0.60634,2.42536 -3.0317,1.81902c-2.42535,-0.60634 -1.81902,-3.03169 -1.81902,-3.03169c4.24056,-16.94968 6.76286,-33.97705 15.21532,-49.56231c2.65454,-4.89463 6.04754,-7.59371 10.56062,-10.71003c1.32999,-0.91837 2.62152,-3.21897 4.10581,-2.57931c2.18678,0.9424 2.71529,3.92306 3.85883,6.0117c1.70841,3.12036 2.14968,6.88902 2.18478,10.44629c0,0.58772 0.01373,10.15992 -0.04511,10.47277c-0.31057,1.65116 -1.49126,3.04458 -1.86504,4.68259c-0.48938,2.14457 -0.37804,4.41599 -0.10202,6.5983c0.54867,4.33795 1.5128,8.48614 2.20776,12.71675c1.74549,-4.38696 4.72519,-8.69107 5.85069,-13.01778c0.65254,-2.50854 0.32708,-6.58637 1.03962,-9.10233c1.35518,-4.78509 4.25933,-9.39679 6.10452,-14.01945c1.68838,-4.2298 2.7131,-7.90488 5.22946,-11.71759l1.97849,-2.96773c0.44513,-0.68926 1.2201,-1.14552 2.10163,-1.14552c1.33138,0 2.41969,1.04075 2.49575,2.35307l0.33131,4.96957c1.58013,7.6814 0.67294,16.36862 0.67294,24.17737c0,10 0,20 0,30v3c0,0 0,2.5 -2.5,2.5z" fill="#ff0000" stroke-width="0.5"/><path d="M92.09728,6.54864c1.11804,-2.23607 3.3541,-1.11803 3.3541,-1.11803l2.1398,1.07554c8.82756,5.21912 15.38094,14.72437 21.67553,22.57556c2.54237,3.17108 5.88523,5.99748 8.85585,8.85812c4.55192,-8.64143 9.18859,-17.21198 14.03094,-25.70747c2.83667,-4.97671 6.81641,-10.19678 8.87544,-15.53502c0.59217,-1.53527 0.74894,-3.21651 1.34961,-4.74848c1.49783,-3.82011 3.87773,-7.71818 5.71874,-11.4002l-0.26393,-0.88197c0,0 0,-2.5 2.5,-2.5c2.5,0 2.5,2.5 2.5,2.5l-0.26394,3.11803c-1.76932,3.53863 -4.10028,7.30544 -5.53404,10.98456c-0.61285,1.57262 -0.77983,3.29606 -1.3976,4.86676c-2.17925,5.54078 -6.19134,10.89845 -9.14038,16.0723c-5.76979,10.12263 -11.2453,20.35207 -16.63475,30.68185c-6.72276,12.87832 -15.42124,24.63756 -22.3003,37.40857c-1.94381,3.60869 -3.21709,7.81738 -4.77934,11.60373c-3.80501,9.22207 -6.92379,18.5923 -10.07796,28.05477c0,0 -0.79056,2.37171 -3.16227,1.58114c-2.37171,-0.79057 -1.58114,-3.16228 -1.58114,-3.16228c3.19078,-9.57232 6.34999,-19.05116 10.19934,-28.38068c1.61477,-3.91365 2.94241,-8.22515 4.94338,-11.96082c6.85735,-12.80227 15.60089,-24.5615 22.32536,-37.45726c0.09082,-0.17408 0.18167,-0.34812 0.27254,-0.52214c-0.08846,-0.07254 -0.13668,-0.12075 -0.13668,-0.12075c-3.31473,-3.31473 -7.22098,-6.53334 -10.16558,-10.18279c-5.87032,-7.27549 -12.03437,-16.69195 -20.32447,-21.42445l-1.86021,-0.92446c0,0 -2.23607,-1.11803 -1.11804,-3.3541z" fill="#ff0000" stroke-width="0.5"/><path d="M238.56941,64.54864c1.11803,2.23607 -1.11803,3.3541 -1.11803,3.3541l-1.35027,0.5317c-9.38911,9.3499 -23.73595,15.94228 -37.27102,13.68106c-1.02612,-0.17143 -1.94814,-0.73728 -2.88788,-1.18361c-1.92373,-0.91369 -4.52436,-1.11524 -5.6963,-2.89348c-1.17195,-1.77824 -0.33541,-4.24746 -0.41257,-6.37576c-0.00021,-0.00572 0.00041,-9.99522 0.00046,-10.00063c0.01276,-1.15226 -0.1572,-2.33687 -0.16864,-3.49534c-1.77728,0 -3.55454,0 -5.33182,0c0,0 -2.5,0 -2.5,-2.5c0,-2.5 2.5,-2.5 2.5,-2.5c2.4154,0 4.83079,0 7.2462,0c0.55352,-0.69369 1.14203,-1.37045 1.63035,-2.09569c1.93778,-2.4211 3.05956,-5.67014 5.62808,-7.40778c1.56314,-1.05749 3.56748,-1.23389 5.36516,-1.8084c3.46899,-1.10865 7.22896,-1.81502 10.84139,-1.35312c2.05105,0.26226 9.62253,2.14387 11.0566,3.39721c2.1276,1.85947 2.28042,9.20484 1.43642,10.94741c-2.27538,4.69788 -9.33987,3.32036 -13.20418,3.32036c-6.6022,0 -13.20441,0 -19.80661,0c-0.56046,2.73411 0.30687,5.6738 0.30674,8.49612c-0.00008,1.66664 0.07953,3.33519 -0.00014,4.99992c-0.05812,1.21449 -1.08166,2.60901 -0.41257,3.62424c1.06145,1.61056 7.39154,1.88642 8.91257,1.87971c11.19697,-0.04936 21.30885,-4.3067 29.23223,-12.26776l2.64973,-1.4683c0,0 2.23607,-1.11803 3.3541,1.11804zM197.94615,53.16667c5.4624,0 10.9248,0 16.3872,0c1.66666,0 3.33352,-0.02457 5,0c0.41485,0.00612 3.42771,0.55253 3.79581,-0.67965c1.80666,-6.04761 -4.56853,-6.44291 -8.74618,-7.02929c-2.89927,-0.40694 -5.89625,0.34569 -8.70422,1.17437c-1.27481,0.37622 -2.74013,0.30671 -3.85003,1.03802c-0.80161,0.52819 -0.91559,1.69371 -1.47733,2.47218c-0.75376,1.04458 -1.58544,2.02997 -2.40524,3.02437z" fill="#ff0000" stroke-width="0.5"/><path d="M229.83335,99.66667c0,-1.57616 0.99371,-2.1586 1.72813,-2.37384c1.29697,-3.05723 2.95942,-4.98442 4.72418,-8.18822c3.78592,-6.87309 6.83339,-14.48543 8.90798,-22.19841c-0.65951,-0.29308 -1.36029,-0.91591 -1.36029,-2.23953c0,-2.5 2.5,-2.5 2.5,-2.5c0.00303,0 0.00606,0 0.00909,0c0.25181,-1.16739 0.48032,-2.33409 0.68473,-3.4979c0.03402,-0.11375 2.81823,-9.4288 2.89557,-9.66463c0.58461,-1.78274 0.46626,-4.06559 1.8721,-5.30799c0.80716,-0.71333 9.02031,-0.53166 9.74255,-0.528c3.47929,0.01761 7.00743,0.22455 10.38335,1.06649c2.13801,0.53321 4.74597,0.33405 6.34686,1.84815c1.14307,1.0811 0.47781,3.11533 0.56225,4.68639c0.30426,5.661 0.00405,12.57245 -5.37847,16.13355c-0.52783,0.34922 -7.51251,0.26393 -8.11803,0.26393c-5.01058,0 -10.02116,0 -15.03174,0c-2.17424,8.4501 -5.50013,16.81381 -9.63448,24.34684c-2.03062,3.69992 -3.67915,5.0578 -4.96207,8.94374l-3.3717,1.70943c0,0 -2.5,0 -2.5,-2.5zM251.4502,62.16667c4.62772,0 9.25543,0 13.88315,0c1.33333,0 2.668,-0.05977 4,0c0.63283,0.0284 1.35764,0.6194 1.88196,0.26393c3.52798,-2.39178 2.30838,-8.32348 2.61455,-11.6722c0.04892,-0.53501 1.0378,-1.24503 0.56924,-1.50785c-1.00613,-0.56435 -2.315,0.03593 -3.45894,-0.11301c-3.13088,-0.40763 -6.26488,-0.96112 -9.42217,-0.96944c-1.66355,-0.00438 -3.3324,0.13109 -4.99068,-0.00138c-0.57752,-0.04613 -1.28684,-0.97649 -1.65545,-0.52952c-0.57156,0.69307 0.05649,1.81279 -0.1279,2.69201c-0.01646,0.07845 -2.79067,9.29015 -2.85139,9.4919c-0.13683,0.78095 -0.28437,1.563 -0.44236,2.34557z" fill="#ff0000" stroke-width="0.5"/><path d="M306.33334,80.16667c-2.5,0 -2.5,-2.5 -2.5,-2.5v-3c0,-0.97885 -0.00734,-7.11644 0.03228,-7.40046c0.14562,-1.04398 0.84707,-1.95706 1,-3c0.58639,-3.99901 -0.03228,-8.54792 -0.03228,-12.59954c0,0 0,-2.5 2.5,-2.5c2.5,0 2.5,2.5 2.5,2.5c0,4.33469 0.56593,9.11183 -0.03228,13.40046c-0.14562,1.04398 -0.84707,1.95706 -1,3c-0.31916,2.1766 0.03228,4.39967 0.03228,6.59954v3c0,0 0,2.5 -2.5,2.5z" fill="#ff0000" stroke-width="0.5"/><path d="M297.83334,25.66667c0,-1.38071 1.11929,-2.5 2.5,-2.5c1.38071,0 2.5,1.11929 2.5,2.5c0,1.38071 -1.11929,2.5 -2.5,2.5c-1.38071,0 -2.5,-1.11929 -2.5,-2.5z" fill="#ff0000" stroke-width="0.5"/><path d="M366.83334,68.66667c0,2.5 -2.5,2.5 -2.5,2.5l-2.52477,-0.04559c-2.33456,0.94864 -5.00346,0.65948 -7.4619,1.2128c-1.57714,0.35497 -2.89852,1.47785 -4.45335,1.92044c-3.22257,0.91733 -7.55292,1.24193 -10.87792,0.72182c-2.24067,-0.3505 -4.8858,-0.19672 -6.58962,-1.69354c-0.79877,-0.70173 -0.59874,-9.04614 -0.59245,-9.61594c0.0477,-4.32395 -0.66651,-5.71843 2.98252,-8.98677c0.78519,-0.70327 2.1753,-0.3435 3,-1c0.85687,-0.68211 0.97193,-2.00993 1.74972,-2.781c3.1143,-3.08742 7.8974,-4.96706 11.83929,-6.55342c0,0 2.32119,-0.92848 3.24967,1.39272c0.92848,2.32119 -1.39272,3.24967 -1.39272,3.24967c-3.24033,1.28747 -7.60123,2.86363 -10.16071,5.44658c-0.9215,0.92995 -1.22976,2.39893 -2.25028,3.219c-0.82167,0.66028 -2.12175,0.41709 -3,1c-1.78695,1.18604 -1.03874,3.37351 -1.01748,5.01323c0.0216,1.66653 0.15401,3.34046 0,5c-0.04637,0.4997 -1.04174,1.16049 -0.59245,1.38406c0.97726,0.48629 2.18288,-0.066 3.27432,-0.04955c3.88071,0.05851 5.20261,0.57331 8.98361,-0.54846c1.64586,-0.4883 3.07316,-1.61781 4.74769,-1.9963c2.50761,-0.5668 5.22334,-0.29251 7.61159,-1.24417l3.47523,-0.04559c0,0 2.5,0 2.5,2.5z" fill="#ff0000" stroke-width="0.5"/><path d="M135.83334,191.66667c0,-2.5 2.5,-2.5 2.5,-2.5h2c4.99755,0 10.00385,-0.09549 15,0c1.98622,0.03796 4.10006,-0.51635 5.95671,0.1903c5.61935,2.13874 3.84385,8.86895 2.44359,13.00867c-0.5923,1.75106 -0.47645,3.96892 -1.82017,5.23835c-1.08079,1.02103 -2.97969,0.25411 -4.41283,0.65c-1.49044,0.41172 -2.86261,1.17011 -4.29392,1.75516c-6.98374,2.41754 -14.88275,7.32701 -22.59785,5.05025c-1.87798,-0.5542 -4.76357,-3.22581 -6.29358,-4.57982c-1.39446,-1.23405 -3.10732,-2.1907 -4.16398,-3.72396c-3.74711,-5.43721 -2.43068,-13.33307 -2.21548,-19.55565c0.1805,-5.21906 0.70892,-10.94719 3.18306,-15.69357c2.19873,-4.21806 6.11418,-8.2655 9.44668,-11.6075c0,0 1.76777,-1.76777 3.53553,0c1.76777,1.76777 0,3.53553 0,3.53553c-2.99513,2.98588 -6.56476,6.62057 -8.55332,10.3925c-3.42889,6.50395 -2.67705,14.76834 -2.71445,21.83973c-0.01676,3.169 -0.63295,5.44871 1.39593,8.19581c0.87424,1.18373 2.25504,1.89133 3.37245,2.84889c0.47401,0.4062 3.67982,3.35211 4.45608,3.56257c1.05437,0.28586 2.18315,-0.09729 3.27554,-0.10727c5.75799,-0.05261 10.69402,-2.96189 16.12662,-4.84248c1.66362,-0.65292 3.24495,-1.57697 4.99085,-1.95875c0.75906,-0.16599 1.74356,0.90373 2.30241,0.36391c0.6635,-0.64092 -0.00424,-1.8577 0.17983,-2.76165c0.19952,-0.97984 2.92493,-6.74972 0.44359,-6.99133c-6.155,-0.59933 -12.82235,0.1903 -19.04329,0.1903h-2c0,0 -2.5,0 -2.5,-2.5z" fill="#ff0000" stroke-width="0.5"/><path d="M199.86562,213.26622c1.50065,-4.50195 1.65671,-9.09517 1.83961,-13.77129c-0.03745,0.08432 -0.07514,0.16535 -0.113,0.2429c-1.40582,2.88018 -4.69273,5.97167 -6.9556,8.16108c-1.42771,1.38136 -2.54094,3.24914 -4.34659,4.07747c-1.50287,0.68942 -3.30328,0.18076 -4.95671,0.1903c-5.2217,0.03013 -7.69496,0.81034 -11.23607,-4.38197c-0.775,-1.13638 -0.22157,-2.74319 -0.26393,-4.11803c-0.06655,-2.16003 0.66426,-4.27097 1.03228,-6.40046c0.31022,-1.79502 -0.01582,-3.64189 -0.03169,-5.46475c-0.23665,0.07904 -0.47333,0.15801 -0.71002,0.23691l-1.67254,0.86436c0,0 -2.23607,1.11803 -3.3541,-1.11803c-1.11803,-2.23607 1.11803,-3.3541 1.11803,-3.3541l2.32746,-1.13564c3.12665,-1.04222 6.25729,-2.0725 9.39011,-3.09601c4.70052,-0.0281 8.50055,-0.21009 13.06185,0.9426c2.01667,0.50963 4.37646,0.38467 6.01296,1.66863c0.89246,0.7002 1.43866,1.80854 1.73155,3.10296c0.60901,-2.9578 1.42203,-5.86011 2.16875,-8.85281c0,0 0.60634,-2.42536 3.0317,-1.81902c2.42536,0.60634 1.81902,3.0317 1.81902,3.0317c-1.2214,4.87654 -2.65823,9.47334 -2.93019,14.549c-0.24225,4.5212 -0.20737,9.00723 -1.03759,13.39242c0.07145,0.48495 0.00841,0.86323 0.00841,0.86323l-0.99324,5.95946c-0.179,1.20503 -1.21791,2.12954 -2.47274,2.12954c-1.38071,0 -2.5,-1.11929 -2.5,-2.5v-3h0.18599zM179.43298,190.25564c0.40036,0.67378 0.40036,1.41103 0.40036,1.41103c0,0.48002 0.00949,6.14144 -0.03228,6.40046c-0.3016,1.87002 -0.86994,3.70789 -0.96772,5.59954c-0.0327,0.63262 -0.60209,1.34632 -0.26393,1.88197c1.68654,2.67151 4.28201,1.59681 6.76393,1.61803c1.01637,0.00869 2.12913,0.63461 3.04329,0.1903c1.21352,-0.5898 1.79039,-2.01996 2.72448,-2.9936c1.76602,-1.8408 4.75965,-4.36892 5.97333,-6.76785c0.79963,-1.58053 0.8792,-3.77881 0.79118,-5.52839c-0.02609,-0.51859 0.25464,-1.30553 -0.20663,-1.54396c-1.11996,-0.57891 -2.50823,-0.27675 -3.74891,-0.50068c-1.29468,-0.23367 -2.54494,-0.70098 -3.84953,-0.87074c-2.42184,-0.31515 -4.88455,-0.00021 -7.32675,-0.01735c-1.09978,0.37519 -2.20005,0.74896 -3.30082,1.12125z" fill="#ff0000" stroke-width="0.5"/><path d="M257.24036,227.91509c-2.24842,-1.09298 -1.15544,-3.3414 -1.15544,-3.3414l0.81639,-1.49441c0.93579,-4.65626 2.1356,-8.02824 1.68568,-12.71362c-0.14496,-1.50956 -0.11107,-3.04522 -0.41856,-4.53022c-0.08652,-0.41785 -0.33049,-1.1113 -0.58085,-1.77375c0.24039,1.38215 -0.55116,2.28109 -1.84618,5.07339c-0.8316,1.79309 -4.41942,7.06796 -5.55443,8.7581c-1.00763,1.50046 -1.62837,3.35969 -3.03749,4.49154c-0.10992,0.08829 -0.22156,0.17392 -0.33478,0.2571l0.01865,0.02486l-3.9798,2.98485c-0.42124,0.32311 -0.94829,0.51515 -1.5202,0.51515c-1.38071,0 -2.5,-1.11929 -2.5,-2.5v-3c0,-5.87124 -0.16008,-11.34246 -1.08497,-17.06664c-0.02716,-0.16809 -0.27365,0.20858 -0.37939,0.34204c-0.33793,0.42656 -0.76085,0.81891 -0.94581,1.33071c-1.13578,3.14281 -1.44361,6.58864 -2.89842,9.59709c-1.12181,2.31984 -3.53772,3.79932 -4.86352,6.00892c-0.81081,1.3513 -0.93965,3.05666 -1.82159,4.36265c-0.01485,0.02199 -0.02975,0.04394 -0.04471,0.06586l0.01054,0.00527l-2.21185,4.42369c-0.40086,0.84561 -1.26228,1.43041 -2.26029,1.43041c-1.38071,0 -2.5,-1.11929 -2.5,-2.5c0,-8.66667 0,-20.33333 0,-29c0,0 0,-2.5 2.5,-2.5c2.5,0 2.5,2.5 2.5,2.5c0,6.14103 0,12.28205 0,18.42308c1.48779,-1.8009 3.241,-3.35532 4.30858,-5.62627c1.41334,-3.00648 1.2864,-6.62374 2.86981,-9.54423c1.41391,-2.60785 5.36254,-6.30448 8.90659,-3.18593c1.61629,1.42224 1.19001,4.13832 1.81306,6.19914c1.27914,4.23094 1.16832,8.39101 1.11645,12.73076c2.28898,-3.98428 5.38407,-7.47663 7.36645,-11.65067c0.63303,-1.3329 1.02094,-2.77114 1.44066,-4.18577c0.39093,-1.3176 -0.18286,-3.28448 0.98886,-4.00277c5.70958,-3.50012 7.89395,1.47417 9.32659,5.61817c2.25383,6.51933 0.09473,13.28028 -1.16618,19.61769l-1.22245,2.69979c0,0 -1.09298,2.24842 -3.3414,1.15544z" fill="#ff0000" stroke-width="0.5"/><path d="M309.83334,231.66667c0,2.5 -2.5,2.5 -2.5,2.5h-5c-4.69775,0 -11.96943,1.3876 -15.1887,-3.29187c-0.92001,-1.33731 -0.17362,-3.26109 0.04571,-4.86942c0.69925,-5.12757 2.74601,-10.12981 5.00314,-14.71533c0.07939,-0.19869 0.58052,-1.4719 1.18567,-2.98185c-0.27681,-0.08647 -0.55551,-0.17638 -0.83638,-0.26983c0,0 -2.37171,-0.79057 -1.58114,-3.16228c0.79057,-2.37171 3.16228,-1.58114 3.16228,-1.58114c0.39636,0.13239 0.78613,0.25501 1.17056,0.36863c0.2088,-0.47549 0.36926,-0.81582 0.45209,-0.94382c3.40998,-5.26976 10.94841,-11.67306 17.0124,-13.48622c3.65411,-1.0926 10.58976,-0.85864 11.981,3.75622c0.89043,2.95364 -2.4396,7.86293 -3.9428,9.7077c-1.10098,1.35116 -7.14323,6.74363 -8.6363,7.32828c-1.49903,0.58698 -3.21792,0.11195 -4.82752,0.14093c-3.31248,0.05964 -6.25218,-0.12318 -9.22045,-0.67446c-0.44804,1.2806 -0.85222,2.58368 -1.3536,3.83584c-2.24462,4.51959 -3.24628,8.73789 -4.64665,13.55543c-0.15651,0.53843 -0.93096,1.12947 -0.59059,1.57506c0.50755,0.66447 1.55846,0.65326 2.38568,0.77501c2.62199,0.38591 5.76844,-0.06688 8.42562,-0.06688h5c0,0 2.5,0 2.5,2.5zM300.41107,204.73959c2.19797,0.28505 4.41202,0.36977 6.92227,0.42708c1.05826,0.02416 2.18987,0.53459 3.17248,0.14093c0.57115,-0.22882 6.25091,-5.57318 6.43507,-5.79278c1.279,-1.52514 2.86022,-3.18476 2.98583,-5.17124c0.07568,-1.19686 -2.39444,-0.20396 -3.59338,-0.17691c-2.12385,0.04793 -4.34435,0.64045 -6.10503,1.82916c-3.25472,2.1974 -7.44371,5.40473 -9.81724,8.74376z" fill="#ff0000" stroke-width="0.5"/><path d="M111.33334,307.16667c2.5,0 2.5,2.5 2.5,2.5l-0.26393,2.11803c-0.79747,1.52348 -1.22984,3.30341 -2.39242,4.57044c-1.17027,1.27542 -2.89147,1.90528 -4.37211,2.80188c-4.07491,2.46757 -7.06789,5.46651 -12.19675,1.31896c-2.79624,-2.26123 -2.04667,-11.36145 -1.68344,-14.45518c0.85434,-7.27652 4.28249,-12.78417 7.10201,-19.3182c1.31864,-3.05586 1.28697,-5.37392 3.21953,-8.41216c0.84899,-1.33473 2.20674,-2.26707 3.31934,-3.39154c1.66781,-1.6856 2.41628,-4.48461 4.58812,-5.43642c1.88882,-0.82777 4.11976,-0.19721 6.17964,-0.29581c0,0 2.5,0 2.5,2.5c0,2.5 -2.5,2.5 -2.5,2.5c-1.27345,-0.0986 -2.63919,-0.78187 -3.82036,-0.29581c-0.82836,0.34088 -0.70992,1.66337 -1.24629,2.38079c-0.61371,0.82088 -1.43673,1.46221 -2.16559,2.18279c-3.29124,3.25389 -3.68079,6.07162 -5.46113,10.1963c-2.62036,6.07083 -5.9628,11.18121 -6.74547,17.93861c-0.0298,0.25727 -0.09858,7.28032 -0.0799,7.79186c0.03051,0.83545 -0.36289,1.92111 0.24394,2.49614c2.0259,1.91971 5.03835,-1.27493 6.1267,-1.95914c1.0785,-0.67802 2.44284,-0.98167 3.30444,-1.92002c0.85391,-0.92998 1.07172,-2.28637 1.60758,-3.42956l-0.26393,0.11803c0,0 0,-2.5 2.5,-2.5z" fill="#ff0000" stroke-width="0.5"/><path d="M134.76567,282.87947c0.32281,1.05444 -0.28859,2.07344 -0.28859,2.07344c-3.33056,5.47764 -3.44675,9.4986 -3.64373,15.71376c-0.00696,0.21948 -0.76836,2.50821 0.45671,2.6903c4.48133,0.66609 10.07702,-2.31784 10.57557,-7.09076c0.15929,-1.52492 -0.02653,-3.06634 -0.03228,-4.59954c-0.00501,-1.33332 -0.0511,-2.66765 0,-4c0.03697,-0.96397 0.69182,-2.01738 0.26393,-2.88197c-1.01652,-2.05397 -4.29086,-2.21727 -7.33161,-1.90524zM127.54364,287.91149c-0.31837,0.15718 -0.71534,0.25518 -1.2103,0.25518c-2.5,0 -2.5,-2.5 -2.5,-2.5l0.41987,-2.38675c0.88,-1.21893 1.76,-2.43786 2.64,-3.65679c3.06601,-0.8585 6.25641,-1.49481 9.44012,-1.45646c1.59731,0.01924 3.32205,-0.50037 4.79057,0.12829c2.11745,0.90646 4.24715,2.28665 5.4455,4.25367c0.88877,1.45887 0.2145,3.41047 0.26393,5.11803c0.19426,6.7111 0.72169,13.20888 -5.03822,18.02811c-0.99943,0.83621 -2.43953,0.91807 -3.67121,1.3436c-4.28304,1.47975 -9.56798,2.80903 -12.10027,-2.415c-0.57596,-1.18819 -0.15916,-2.63665 -0.1903,-3.95671c-0.11367,-4.81879 0.279,-8.77337 1.7103,-12.75518z" fill="#ff0000" stroke-width="0.5"/><path d="M173.33334,310.16667c-2.5,0 -2.5,-2.5 -2.5,-2.5v-2c0.01583,-0.48352 0.02779,-0.9803 0.06094,-1.47548c-1.06075,0.73548 -2.14347,1.44031 -3.243,2.119l0.14814,0.18518l-3.88879,3.11103c-0.43024,0.35027 -0.97924,0.56027 -1.57729,0.56027c-1.38071,0 -2.5,-1.11929 -2.5,-2.5v-4c0,-1.25794 -0.17594,-2.24431 0.03749,-3.18845c-0.15092,0.12437 -0.27871,0.26307 -0.34169,0.44434c-1.28295,3.6926 0.03459,9.01589 -6.01857,10.23781c-1.86681,0.37684 -3.56827,-1.86875 -4.48692,-3.537c-0.24145,-0.43847 -0.1903,-8.02113 -0.1903,-8.95671c0,0 0,-2.5 2.5,-2.5c2.5,0 2.5,2.5 2.5,2.5c0,1.28153 0.03327,2.56351 0.00388,3.84464c0.60488,-2.84525 1.6198,-5.79938 4.16179,-6.95877c1.77955,-0.81165 4.2301,-2.08581 5.79611,-0.91397c1.01776,0.76159 1.05752,5.19884 1.04481,7.79889c0.92703,-0.92947 2.20033,-1.44837 3.31662,-2.15344l0.78753,-2.35539c0.31485,-1.02045 1.26547,-1.76196 2.38927,-1.76196c0.88153,0 1.6565,0.45626 2.10163,1.14551l1.97849,2.96774l-0.05728,0.03819c0.13518,0.19943 0.2592,0.40693 0.36989,0.6241c0.7153,1.40345 0.07151,3.14964 0.10727,4.72446v2c0,0 0,2.5 -2.5,2.5z" fill="#ff0000" stroke-width="0.5"/><path d="M200.83334,319.66667c0,2.5 -2.5,2.5 -2.5,2.5h-3c-3.74878,0 -8.97787,1.05845 -11.20419,-3.32036c-0.93464,-1.83828 -0.22939,-4.11847 -0.29581,-6.17964c-0.09544,-2.96156 -0.03642,-5.93477 -0.01043,-8.902c-0.19712,-1.50281 -0.16506,-2.96702 0.1177,-3.82246c0.8637,-2.61296 3.65241,-4.1243 5.62496,-6.04331c1.02785,-0.99995 1.3324,-2.74393 2.58812,-3.43642c0.33541,-0.18497 6.68269,-0.45254 7.4851,-0.27708c1.95023,0.42643 4.32147,0.46625 5.66506,1.94274c1.09275,1.20084 0.64243,3.22572 0.51076,4.84399c-0.13778,1.69321 -0.4698,3.44741 -1.30577,4.92629c-0.88146,1.55936 -2.0425,2.463 -3.36523,2.96855c0.39096,0.36999 0.68973,0.93547 0.68973,1.79971c0,2.5 -2.5,2.5 -2.5,2.5h-2c-1.75237,0 -5.57975,0.38007 -8.43012,0.21095c-0.00339,1.09816 -0.02243,2.19504 -0.06988,3.28905c-0.05535,1.27606 -0.62388,2.58594 -0.29581,3.82036c0.39393,1.48225 6.07136,0.67964 6.79581,0.67964h3c0,0 2.5,0 2.5,2.5zM188.83334,301.66667c0,0.28645 0.00097,0.57308 0.00269,0.85984c0.09165,-2.35984 2.49731,-2.35984 2.49731,-2.35984c2.68185,0 5.39177,0.59247 8.04329,0.1903c1.40377,-0.21291 1.08643,-2.63027 1.47544,-3.99576c0.11542,-0.40515 0.86153,-0.92271 0.51076,-1.15601c-0.64826,-0.43116 -1.55642,-0.0513 -2.33494,-0.05726c-0.89818,-0.00688 -1.79803,0.07375 -2.69454,0.01873c-0.61359,-0.03766 -1.31712,-0.64889 -1.82036,-0.29581c-0.7986,0.56031 -0.73381,1.8622 -1.41188,2.56358c-0.83535,0.86408 -2.10862,1.19385 -3,2c-0.86798,0.78498 -1.21306,1.2327 -1.33211,1.70715c0.06434,0.30716 0.06434,0.52509 0.06434,0.52509zM189.72577,304.63593c-0.45424,-0.33583 -0.83969,-0.88415 -0.88745,-1.77941c0.00471,0.60042 0.0123,1.20143 0.02067,1.80274c0.28301,0.08286 0.57294,0.05281 0.86679,-0.02333z" fill="#ff0000" stroke-width="0.5"/><path d="M201.83334,337.66667c0,-2.5 2.5,-2.5 2.5,-2.5h1c6.59053,0.05911 10.98462,-3.16504 15.12799,-8.15628c1.44819,-1.74453 3.19209,-3.26419 4.6762,-4.9747c-1.18231,0.42385 -2.53889,0.10116 -3.80419,0.13098c-3.42074,0.08063 -10.89999,0.47599 -13.62407,-1.59937c-1.36745,-1.0418 -1.76517,-3.08906 -1.87408,-4.80469c-0.30005,-4.72634 2.53439,-7.98227 5.92486,-10.60594c-0.38396,-0.09753 -0.78921,-0.31698 -1.19447,-0.72224c-1.76777,-1.76777 0,-3.53553 0,-3.53553l2.76777,-1.73223c1,0 2,0 3,0c4.72638,0 10.35566,0.26664 14.01908,3.90835c0.35752,-0.4925 0.96129,-0.90835 1.98092,-0.90835c2.5,0 2.5,2.5 2.5,2.5c0,0.93505 0.00734,7.18069 -0.03228,7.40046c-1.3908,7.71511 -5.68734,12.41918 -10.50256,18.14891c-5.19043,6.1762 -10.79851,9.89072 -18.96516,9.95063h-1c0,0 -2.5,0 -2.5,-2.5zM220.81269,304.25906c-0.26111,0.93342 -1.09259,1.48774 -1.09259,1.48774c-3.11738,2.07826 -6.28825,3.51318 -8.12941,6.9943c-0.45658,0.86326 -0.6074,1.86493 -0.75919,2.82963c-0.06227,0.39577 -0.24783,1.05099 0.12592,1.19531c2.61986,1.01169 7.64021,0.31392 10.37593,0.40063c0.6837,0.02167 1.39842,0.41846 2.04329,0.1903c2.96758,-1.04992 3.29738,-6.30879 3.45671,-8.6903c0.04,-0.59792 0.72238,-1.32014 0.3245,-1.76825c-1.61238,-1.81593 -3.96503,-2.43411 -6.34516,-2.63936z" fill="#ff0000" stroke-width="0.5"/><path d="M267.33334,330.16667c-2.5,0 -2.5,-2.5 -2.5,-2.5l0.12829,-1.20943c-0.08969,-0.26908 -0.85694,-2.55926 -1.43752,-4.32347c-1.44025,1.83643 -3.40058,3.30804 -5.46631,3.92563c-0.29269,0.0875 -6.59732,0.13423 -7.72446,0.10727c-1.65298,-0.03953 -3.40471,0.37996 -4.95671,-0.1903c-3.53654,-1.29946 -5.80391,-7.24846 -7.27936,-10.19166c0,0 -0.41341,-0.82683 -0.23468,-1.72631c0.05368,-1.11614 0.10736,-2.23229 0.16105,-3.34843c0.64319,-0.71129 4.35097,-5.00054 5.35299,-5.35299c1.55978,-0.54864 3.30373,-0.15077 4.95671,-0.1903c5.02351,-0.12015 8.7891,-0.07132 12.75935,3.37852c0.57036,0.4956 1.08623,0.91333 1.55007,1.27882c0.08777,-2.09329 0.19058,-4.16821 0.19058,-6.15735c0,0 0,-2.5 2.5,-2.5c2.5,0 2.5,2.5 2.5,2.5c0,5.02314 -0.73016,10.62833 -0.03228,15.59954c0.27453,1.95555 1.27953,3.73649 1.90399,5.60989l0.12829,2.79057c0,0 0,2.5 -2.5,2.5zM242.76588,313.94227c1.05405,2.1088 2.13922,4.21716 3.50082,6.13943c0.31504,0.44476 0.49674,1.13477 1.02335,1.27527c1.94731,0.51954 4.02816,-0.22475 6.04329,-0.1903c1.09227,0.01867 2.21948,0.38681 3.27554,0.10727c2.16518,-0.57312 3.78853,-3.04007 4.25674,-5.00773c0.1198,-0.50347 0.51858,-1.1284 0.20375,-1.53916c-3.44657,-4.49666 -7.74844,-4.40333 -12.73603,-4.56039c-1.01591,-0.03199 -2.06963,-0.48196 -3.04329,-0.1903c-1.19534,0.35806 -1.67995,1.85845 -2.64701,2.64701c0.04094,0.43963 0.08189,0.87926 0.12283,1.31888z" fill="#ff0000" stroke-width="0.5"/><path d="M269.09728,295.78471c-1.11803,-2.23607 1.11803,-3.3541 1.11803,-3.3541l3.9086,-1.13564c2,0.66667 4,1.33333 6,2c3.48823,1.20822 6.68722,0.61009 10.22081,2.08542c1.19257,0.49792 2.14147,1.44887 3.24343,2.12401c1.60396,0.9827 3.76041,1.33033 4.87181,2.84795c0.85287,1.16459 0.31556,2.872 0.37337,4.31433c0.10911,2.72188 0.20555,5.45635 -0.00594,8.1722c-0.07,0.89893 -1.35692,9.48565 -1.38341,9.5551c-0.75884,1.98921 -4.75708,6.81754 -6.03307,8.66326c-2.09465,3.02992 -4.50384,6.78512 -7.76325,8.73607c-3.59383,2.15112 -8.29972,2.35591 -12.31433,2.37337c0,0 -2.5,0 -2.5,-2.5c0,-2.5 2.5,-2.5 2.5,-2.5c3.02803,0.01535 6.95339,0.01882 9.68567,-1.62663c2.64289,-1.59161 4.53101,-4.79145 6.23675,-7.26393c0.32603,-0.47258 5.17564,-6.76126 5.51394,-7.65724c0.96484,-2.55542 0.85501,-5.40134 1.06958,-8.1244c0.20497,-2.6012 -0.15143,-5.22259 -0.00594,-7.8278c0.03209,-0.57461 0.77424,-1.27274 0.37337,-1.68567c-0.774,-0.79729 -2.14013,-0.64364 -3.12819,-1.15205c-0.98829,-0.50853 -1.7404,-1.42573 -2.75657,-1.87599c-3.06679,-1.35888 -6.55465,-0.8721 -9.77919,-1.91458c-2,-0.66667 -4,-1.33333 -6,-2l-0.0914,0.86436c0,0 -2.23607,1.11803 -3.3541,-1.11803z" fill="#ff0000" stroke-width="0.5"/></g></g></svg>